<svg width="5" height="5" viewBox="0 0 450 450" xml:space="preserve">
  <path d="m383.757 214.898-44.177-47.332 80.217.047v-.113H420v-55c0-30.327-24.673-55-55-55H55c-30.327 0-55 24.673-55 55v180c0 29.278 22.997 53.279 51.875 54.905C58.521 373.303 82.06 392.5 110 392.5c27.906 0 51.424-19.15 58.102-45h113.797c6.678 25.85 30.195 45 58.102 45 27.906 0 51.424-19.15 58.102-45H450v-105l-66.243-27.602zm-43.276-2.398H300v-43.372l40.481 43.372zM140 332.5c0 16.542-13.458 30-30 30s-30-13.458-30-30 13.458-30 30-30 30 13.458 30 30zm230 0c0 16.542-13.458 30-30 30s-30-13.458-30-30 13.458-30 30-30 30 13.458 30 30zm28.102-15c-6.678-25.85-30.195-45-58.102-45-27.906 0-51.424 19.15-58.102 45H168.102c-6.678-25.85-30.195-45-58.102-45-27.836 0-51.302 19.057-58.047 44.808C39.601 315.799 30 305.254 30 292.5v-180c0-13.785 11.215-25 25-25h310c13.785 0 25 11.215 25 25v25H225v30h45v75h102l48 20v55h-21.898z"/>
  <path d="M84.917 242.5h90v-100h-90v100zm30-70h30v40h-30v-40z"/> 
</svg>
