<svg aria-hidden="true" style="position:absolute;width:0;height:0;overflow:hidden" xmlns="http://www.w3.org/2000/svg">
  <defs>
    <symbol id="icon-star-empty" viewBox="0 0 32 32">
      <path stroke-width="2.4" d="M12.4 9.394 16 2.572l3.6 6.822a2.2 2.2 0 0 0 1.571 1.141l7.601 1.315-5.376 5.532a2.2 2.2 0 0 0-.6 1.846l1.098 7.635-6.922-3.404a2.199 2.199 0 0 0-1.941 0l-6.922 3.404 1.098-7.635a2.2 2.2 0 0 0-.6-1.846L3.231 11.85l7.601-1.315a2.202 2.202 0 0 0 1.571-1.141zm16.635 2.185zM7.767 27.031z"/>
    </symbol>

  <symbol id="icon-star-full" viewBox="0 0 32 32">
   <path stroke-width="2.4" d="M12.4 9.394 16 2.572l3.6 6.822a2.2 2.2 0 0 0 1.571 1.141l7.601 1.315-5.376 5.532a2.2 2.2 0 0 0-.6 1.846l1.098 7.635-6.922-3.404a2.199 2.199 0 0 0-1.941 0l-6.922 3.404 1.098-7.635a2.2 2.2 0 0 0-.6-1.846L3.231 11.85l7.601-1.315a2.202 2.202 0 0 0 1.571-1.141z"/>
  </symbol>

  
  <symbol id="icon-like" viewBox="0 0 33 32">
   <path d="M9.723 2.484c-4.308 0.144-7.877 3.427-8.448 7.773-0.084 0.64-0.041 2.044 0.083 2.715 0.232 1.257 0.803 2.548 1.635 3.695 0.444 0.613 12.656 12.831 13 13.007 0.365 0.187 0.984 0.187 1.349 0 0.344-0.176 12.556-12.393 13-13.007 1.204-1.66 1.769-3.364 1.769-5.333 0-2.427-0.907-4.592-2.64-6.305-1.566-1.565-3.73-2.534-6.12-2.534-0.026 0-0.052 0-0.078 0l0.004-0c-1.317 0.001-2.307 0.199-3.5 0.703-1.030 0.435-1.911 1.032-2.653 1.769l0.001-0.001-0.459 0.443-0.459-0.443c-1.753-1.697-4.017-2.563-6.485-2.481zM10.697 5.58c0.817 0.063 1.791 0.407 2.539 0.899 0.236 0.156 0.839 0.692 1.459 1.299 1.208 1.184 1.367 1.288 1.972 1.288 0.603 0 0.763-0.104 1.972-1.287 0.596-0.584 1.227-1.147 1.449-1.293 0.754-0.494 1.657-0.824 2.63-0.917l0.024-0.002c2.859-0.229 5.365 1.525 6.131 4.295 0.139 0.503 0.153 0.641 0.153 1.472s-0.015 0.969-0.153 1.472c-0.218 0.767-0.553 1.437-0.991 2.026l0.012-0.017c-0.191 0.251-2.633 2.736-5.779 5.88l-5.448 5.444-5.448-5.444c-2.996-2.995-5.591-5.632-5.764-5.861-0.849-1.117-1.228-2.359-1.161-3.8 0.047-0.988 0.268-1.747 0.76-2.607 0.723-1.263 2.024-2.267 3.475-2.679 0.472-0.135 1.335-0.247 1.639-0.213 0.076 0.009 0.315 0.029 0.531 0.045z"></path>
  </symbol>

   <symbol id="icon-refrigerator" viewBox="0 0 32 32">
      <path d="M7.973 2.027c-1.054 0.211-1.934 1.024-2.28 2.106l-0.12 0.374v21.386l0.118 0.376c0.218 0.693 0.768 1.382 1.39 1.747 0.275 0.16 0.307 0.198 0.342 0.405 0.101 0.589 0.558 1.182 1.109 1.442 0.285 0.133 0.331 0.138 1.507 0.155 1.376 0.019 1.592-0.018 2.038-0.333 0.346-0.246 0.589-0.562 0.728-0.946l0.115-0.312h6.17l0.035 0.146c0.122 0.504 0.584 1.053 1.086 1.29 0.291 0.136 0.304 0.138 1.627 0.138s1.336-0.002 1.627-0.138c0.558-0.262 0.97-0.784 1.094-1.381 0.058-0.282 0.072-0.299 0.376-0.477 0.638-0.371 1.162-1.043 1.39-1.792 0.094-0.306 0.099-0.784 0.099-11.013v-10.693l-0.118-0.374c-0.331-1.043-1.24-1.894-2.245-2.101-0.334-0.069-15.746-0.074-16.091-0.005zM23.971 4.234c0.125 0.104 0.226 0.232 0.299 0.376l0.003 0.007c0.096 0.218 0.099 0.398 0.086 3.846l-0.013 3.618h-16.694v-7.368l0.147-0.221c0.093-0.132 0.208-0.242 0.342-0.325l0.005-0.003c0.197-0.104 0.309-0.106 7.91-0.094l7.71 0.011 0.203 0.154zM9.893 5.594c-0.244 0.107-0.433 0.303-0.527 0.545l-0.002 0.007c-0.070 0.168-0.083 0.534-0.083 2.422 0 2.166 0.003 2.232 0.114 2.461 0.163 0.325 0.494 0.545 0.876 0.545 0.013 0 0.027-0 0.040-0.001l-0.002 0c0.008 0 0.018 0 0.027 0 0.156 0 0.305-0.028 0.442-0.080l-0.009 0.003c0.246-0.151 0.434-0.377 0.533-0.646l0.003-0.009c0.074-0.27 0.075-4.344 0-4.613-0.162-0.584-0.85-0.893-1.411-0.635zM24.347 19.923v5.765l-0.144 0.216c-0.097 0.138-0.223 0.25-0.37 0.327l-0.006 0.003-0.234 0.114h-7.586c-6.253 0-7.614-0.013-7.757-0.072-0.271-0.128-0.475-0.36-0.564-0.642l-0.002-0.008c-0.064-0.258-0.086-11.394-0.022-11.458 0.019-0.019 3.782-0.029 8.36-0.021l8.325 0.013v5.763zM10.056 14.406c-0.299 0.076-0.54 0.277-0.671 0.541l-0.003 0.006c-0.093 0.203-0.101 0.386-0.101 2.459 0 2.066 0.008 2.258 0.099 2.454 0.164 0.36 0.521 0.605 0.934 0.605 0.357 0 0.672-0.183 0.855-0.461l0.002-0.004 0.16-0.23v-4.658l-0.141-0.24c-0.184-0.304-0.513-0.504-0.888-0.504-0.088 0-0.173 0.011-0.255 0.032l0.007-0.002z"></path>
    </symbol>
      
    </symbol>
  <symbol id="icon-radio" viewBox="0 0 24 24">
    <circle cx="12" cy="12" r="2"/>
   <path d="M16.24 7.76a6 6 0 0 1 0 8.49m-8.48-.01a6 6 0 0 1 0-8.49m11.31-2.82a10 10 0 0 1 0 14.14m-14.14 0a10 10 0 0 1 0-14.14"/>
  </symbol>

 <symbol id="icon-kitchen" viewBox="0 0 24 24" fill="none" stroke="currentColor" stroke-width="2" stroke-linecap="round" stroke-linejoin="round">
   <path d="M18 8h1a4 4 0 0 1 0 8h-1M2 8h16v9a4 4 0 0 1-4 4H6a4 4 0 0 1-4-4V8zM6 1v3M10 1v3M14 1v3"/>
  </symbol>
      
  <symbol id="icon-bathroom" viewBox="0 0 24 24" fill="none" stroke="currentColor" stroke-width="2" stroke-linecap="round" stroke-linejoin="round" >
    <path d="M12 2.69l5.66 5.66a8 8 0 1 1-11.31 0z"></path>
  </symbol>

    <symbol id="icon-tv" viewBox="0 0 31 32">
      <path d="M9.31 1.668c-0.305 0.156-0.427 0.337-0.455 0.674-0.017 0.211 0.002 0.326 0.082 0.481 0.061 0.116 1.016 1.112 2.255 2.349 1.182 1.18 2.15 2.162 2.15 2.183s-1.46 0.045-3.246 0.055c-3.648 0.020-3.439 0-4.35 0.43-1.157 0.545-2.002 1.455-2.436 2.618-0.292 0.787-0.278 0.51-0.3 6.17-0.013 3.58-0.001 5.378 0.038 5.714 0.231 1.998 1.608 3.577 3.57 4.098l0.439 0.117h16.912l0.439-0.117c1.69-0.444 2.997-1.739 3.45-3.388l0.008-0.034 0.136-0.495 0.001-5.508c0-5.178-0.006-5.533-0.096-5.916-0.345-1.474-1.269-2.621-2.626-3.26-0.912-0.43-0.702-0.409-4.35-0.43-1.785-0.011-3.246-0.035-3.246-0.055s0.968-1.003 2.15-2.183c1.182-1.18 2.194-2.232 2.25-2.338 0.065-0.118 0.103-0.259 0.103-0.409 0-0.475-0.385-0.86-0.86-0.86-0.088 0-0.173 0.013-0.253 0.038l0.006-0.002c-0.184 0.053-0.601 0.448-2.892 2.735l-2.676 2.671-2.651-2.648c-1.83-1.829-2.709-2.673-2.842-2.728-0.264-0.11-0.444-0.1-0.712 0.037zM24.224 9.272c0.968 0.343 1.702 1.129 1.965 2.108l0.005 0.022c0.115 0.451 0.117 10.641 0.002 11.129-0.23 0.975-1.013 1.837-1.947 2.143l-0.381 0.124h-16.704l-0.381-0.124c-0.934-0.306-1.717-1.169-1.947-2.143-0.115-0.488-0.113-10.678 0.002-11.129 0.23-0.902 0.951-1.737 1.783-2.063 0.594-0.234 0.401-0.229 9.024-0.219l8.172 0.009 0.408 0.145zM11.352 28.781c-0.339 0.124-0.577 0.444-0.577 0.82 0 0.080 0.011 0.157 0.031 0.23l-0.001-0.006c0.060 0.223 0.314 0.498 0.538 0.583 0.098 0.037 1.458 0.054 4.173 0.054s4.075-0.017 4.173-0.054c0.381-0.143 0.627-0.58 0.558-0.989-0.045-0.266-0.34-0.58-0.619-0.657-0.143-0.040-1.422-0.057-4.138-0.055-3.238 0.001-3.967 0.015-4.137 0.075z"></path>
    </symbol>

    <symbol id="icon-ac" viewBox="0 0 40 32">
      <path d="M18.01.102c-3.396.596-5.97 3.138-6.646 6.562-.062.31-.098.72-.082.912.07.844.976 1.332 1.768.95.42-.204.594-.514.792-1.402.286-1.292.73-2.148 1.534-2.964 1.074-1.092 2.504-1.666 4.09-1.648h.054c.87 0 1.69.216 2.408.598l-.028-.013c2.144 1.044 3.408 3.46 3.008 5.752-.382 2.192-1.806 3.772-4.022 4.468l-.586.184-19.476.066-.27.18a1.228 1.228 0 0 0 .125 2.11l.007.003.296.144 19.452-.038.782-.212c3.354-.908 5.716-3.652 6.056-7.038a7.726 7.726 0 0 0-.789-4.197l.02.045C25.398 2.328 23.358.697 20.908.17l-.053-.01c-.69-.15-2.152-.18-2.846-.058zm14.956 11.012c-2.598.352-4.712 2.234-5.304 4.72-.176.742-.2 1.654-.05 1.932a1.286 1.286 0 0 0 1.712.556l-.007.003c.44-.214.62-.534.694-1.24.11-1.034.374-1.652.992-2.312.692-.74 1.476-1.124 2.464-1.21 1.742-.15 3.46 1.06 3.896 2.746.492 1.908-.598 3.808-2.562 4.466-.352.118-1.062.126-17.166.158-15.764.03-16.814.04-17.012.148-.804.44-.82 1.586-.03 2.122l.242.162 12.732.034c9.088.024 12.792.056 12.934.108.856.316 1.546.892 1.888 1.572.938 1.87-.222 4.08-2.316 4.404-1.642.254-3.178-.826-3.558-2.504-.122-.54-.36-.88-.74-1.052-.816-.372-1.774.208-1.774 1.074 0 .682.41 1.802.948 2.588.72 1.052 1.96 1.902 3.286 2.252.71.188 2.154.172 2.866-.032 3.436-.98 5.126-4.672 3.564-7.788l-.306-.612 2.17-.026c2.086-.026 2.198-.034 2.818-.2a6.294 6.294 0 0 0 4.421-4.254l.011-.044c.162-.532.18-.684.18-1.652 0-.972-.018-1.12-.184-1.668-.687-2.279-2.578-3.986-4.917-4.395l-.037-.005a7.266 7.266 0 0 0-1.134-.087 7.77 7.77 0 0 0-.751.037l.031-.003z"/>
    </symbol>

    <symbol id="icon-transmission" viewBox="0 0 32 32">
    <path d="M5.84 2.957c-1.191 0.273-2.158 1.062-2.665 2.114l-0.010 0.023c-0.445 0.933-0.456 2.282-0.024 3.203 0.429 0.915 1.104 1.582 1.997 1.971l0.35 0.152 0.016 1.794 0.016 1.792 0.2 0.405c0.264 0.533 0.67 0.939 1.203 1.202l0.405 0.2 3.472 0.054 0.027 4.402 0.026 4.403 0.2 0.405c0.264 0.533 0.67 0.939 1.203 1.203l0.405 0.2 2.43 0.016c1.664 0.011 2.493-0.002 2.63-0.042 0.451-0.133 0.782-0.6 0.784-1.109 0.001-0.014 0.001-0.031 0.001-0.047 0-0.458-0.27-0.853-0.66-1.035l-0.007-0.003c-0.197-0.091-0.384-0.099-2.357-0.099-1.878-0.002-2.152-0.011-2.226-0.086-0.077-0.075-0.083-0.506-0.072-4.146l0.014-4.062 2.267-0.027c2.478-0.029 2.413-0.021 2.73-0.355 0.429-0.451 0.408-1.259-0.043-1.682-0.346-0.325-0.101-0.31-5.349-0.31-4.29 0-4.806-0.008-4.882-0.083-0.072-0.072-0.083-0.286-0.083-1.534v-1.451l0.354-0.154c1.126-0.491 1.989-1.525 2.234-2.675 0.047-0.262 0.074-0.564 0.074-0.872 0-0.311-0.028-0.616-0.080-0.913l0.005 0.031c-0.266-1.259-1.331-2.402-2.613-2.803-0.48-0.15-1.501-0.192-1.973-0.082zM7.368 5.453c0.496 0.293 0.752 0.736 0.752 1.299 0 0.394-0.144 0.734-0.429 1.019-0.283 0.283-0.557 0.387-1.024 0.387-0.474 0-0.742-0.104-1.040-0.402-0.768-0.768-0.437-2.086 0.613-2.43 0.074-0.024 0.304-0.035 0.514-0.027 0.293 0.013 0.435 0.050 0.614 0.154zM22.16 9.595c-0.138 0.067-0.255 0.151-0.357 0.251l0-0c-0.318 0.341-0.31 0.216-0.309 4.165 0.002 3.405 0.006 3.627 0.101 3.829 0.4 0.867 1.662 0.899 2.13 0.053 0.069-0.125 0.094-0.36 0.115-1.093l0.027-0.933 0.773-0.032c1.136-0.046 1.582-0.23 2.301-0.957 0.64-0.645 0.899-1.282 0.899-2.211 0-0.582-0.074-0.923-0.306-1.411-0.374-0.787-1.31-1.534-2.138-1.704-0.162-0.034-0.866-0.058-1.653-0.058-1.221 0.002-1.394 0.013-1.584 0.101zM25.075 11.989c0.512 0.317 0.507 1.040-0.008 1.362-0.158 0.098-0.267 0.115-0.694 0.117h-0.506l-0.016-0.744c-0.004-0.088-0.007-0.192-0.007-0.296 0-0.185 0.008-0.368 0.023-0.549l-0.002 0.024c0.048-0.125 0.976-0.058 1.21 0.086zM22.16 21.595c-0.138 0.067-0.255 0.151-0.357 0.251l0-0c-0.315 0.336-0.31 0.282-0.309 3.499 0.002 2.755 0.008 2.962 0.101 3.162 0.124 0.263 0.335 0.468 0.596 0.581l0.008 0.003c0.318 0.133 2.234 0.117 2.782-0.022 1.344-0.373 2.381-1.411 2.747-2.728l0.007-0.028c0.144-0.558 0.144-1.403 0-1.962-0.372-1.344-1.41-2.381-2.726-2.747l-0.027-0.007c-0.346-0.088-0.589-0.106-1.509-0.104-0.955 0.002-1.126 0.014-1.312 0.101zM24.587 24.010c0.517 0.221 0.864 0.754 0.864 1.326 0 0.752-0.594 1.389-1.344 1.446l-0.24 0.018-0.014-1.413c-0.005-0.17-0.007-0.37-0.007-0.57 0-0.32 0.007-0.638 0.020-0.955l-0.002 0.045c0.035-0.090 0.395-0.038 0.723 0.102z"></path>
    </symbol>

    <symbol id="icon-calendar" viewBox="0 0 32 32">
     <path d="M10.187 1.578c-0.13 0.061-0.242 0.137-0.34 0.227l0.001-0.001c-0.299 0.285-0.326 0.389-0.355 1.397l-0.026 0.933-1.814 0.030c-2 0.032-2.054 0.040-2.752 0.405-0.96 0.509-1.673 1.379-1.963 2.424l-0.007 0.028c-0.102 0.402-0.104 0.632-0.104 10.314s0.002 9.912 0.104 10.315c0.338 1.314 1.44 2.418 2.755 2.754 0.402 0.102 0.632 0.106 10.314 0.106s9.912-0.003 10.314-0.106c1.315-0.336 2.418-1.44 2.755-2.754 0.102-0.403 0.104-0.634 0.104-10.315s-0.002-9.912-0.104-10.314c-0.297-1.073-1.009-1.942-1.948-2.441l-0.021-0.010c-0.698-0.365-0.752-0.373-2.752-0.405l-1.814-0.030-0.026-0.933c-0.029-1.008-0.056-1.112-0.355-1.397-0.217-0.193-0.504-0.311-0.818-0.311s-0.602 0.118-0.82 0.312l0.001-0.001c-0.301 0.285-0.326 0.389-0.355 1.397l-0.027 0.933h-8.266l-0.027-0.933c-0.029-1.008-0.054-1.112-0.355-1.397-0.224-0.193-0.518-0.31-0.839-0.31-0.165 0-0.322 0.031-0.467 0.087l0.009-0.003zM9.493 7.467c0.029 1.008 0.056 1.112 0.355 1.397 0.55 0.523 1.504 0.368 1.877-0.304 0.069-0.126 0.094-0.36 0.115-1.093l0.027-0.934h8.266l0.027 0.934c0.029 1.008 0.054 1.112 0.355 1.397 0.217 0.193 0.504 0.311 0.818 0.311s0.602-0.118 0.82-0.312l-0.001 0.001c0.299-0.285 0.326-0.389 0.355-1.397l0.026-0.934h1.547c1.51 0.002 1.554 0.003 1.826 0.126 0.342 0.155 0.658 0.488 0.792 0.837 0.094 0.245 0.102 0.427 0.102 2.451v2.186h-21.6v-2.186c0-2.018 0.008-2.208 0.101-2.448 0.191-0.478 0.603-0.832 1.107-0.936l0.010-0.002c0.123-0.024 0.859-0.040 1.635-0.037l1.414 0.008 0.026 0.934zM26.8 20.72c0 5.957-0.003 6.197-0.102 6.45-0.155 0.37-0.433 0.664-0.782 0.834l-0.009 0.004-0.278 0.125h-9.6c-9.315 0-9.608-0.003-9.864-0.101-0.37-0.156-0.663-0.435-0.833-0.784l-0.004-0.010-0.126-0.278-0.014-6.158c-0.008-3.387-0.003-6.189 0.011-6.227 0.022-0.054 2.058-0.066 10.814-0.054l10.789 0.013v6.187z"></path>
    </symbol>

    <symbol id="icon-location" viewBox="0 0 24 24" fill="none" stroke="currentColor" stroke-width="2" stroke-linecap="round" stroke-linejoin="round">
    <path d="M1 6v16l7-4 8 4 7-4V2l-7 4-8-4-7 4zM8 2v16M16 6v16"/>
    </symbol>

     <symbol id="icon-gas" viewBox="0 0 32 32">
      <path d="M25.072 13.991c-.368-.453-.816-.846-1.232-1.239-1.072-.907-2.288-1.556-3.311-2.508-2.384-2.206-2.912-5.848-1.392-8.644-1.52.348-2.848 1.133-3.983 1.995-4.143 3.143-5.775 8.689-3.823 13.449.064.151.128.302.128.499 0 .332-.24.635-.56.756-.368.151-.752.06-1.056-.181a.901.901 0 0 1-.224-.257c-1.808-2.161-2.096-5.259-.88-7.737-2.672 2.055-4.127 5.531-3.919 8.81.096.756.192 1.511.464 2.267.224.907.656 1.813 1.136 2.614 1.728 2.614 4.719 4.488 7.935 4.866 3.423.408 7.087-.181 9.71-2.418 2.927-2.508 3.951-6.528 2.448-9.974l-.208-.393c-.336-.695-1.232-1.904-1.232-1.904zm-5.055 9.521c-.448.363-1.184.756-1.76.907-1.792.604-3.583-.242-4.639-1.239 1.904-.423 3.039-1.753 3.375-3.098.272-1.209-.24-2.206-.448-3.37-.192-1.118-.16-2.07.272-3.113.304.574.624 1.148 1.008 1.602 1.232 1.511 3.167 2.176 3.583 4.231.064.212.096.423.096.65.048 1.239-.528 2.599-1.488 3.43z"/>
    </symbol>

    <symbol id="icon-camper-full"  viewBox="0 0 24 24" fill="none">
     <path fill-rule="evenodd" clip-rule="evenodd" d="M3 1a2 2 0 0 0-2 2v2a2 2 0 0 0 2 2h2a2 2 0 0 0 2-2V3a2 2 0 0 0-2-2H3Zm2 2H3v2h2V3ZM3 9a2 2 0 0 0-2 2v2a2 2 0 0 0 2 2h2a2 2 0 0 0 2-2v-2a2 2 0 0 0-2-2H3Zm2 2H3v2h2v-2ZM1 19a2 2 0 0 1 2-2h2a2 2 0 0 1 2 2v2a2 2 0 0 1-2 2H3a2 2 0 0 1-2-2v-2Zm2 0h2v2H3v-2ZM11 1a2 2 0 0 0-2 2v2a2 2 0 0 0 2 2h2a2 2 0 0 0 2-2V3a2 2 0 0 0-2-2h-2Zm2 2h-2v2h2V3ZM9 11a2 2 0 0 1 2-2h2a2 2 0 0 1 2 2v2a2 2 0 0 1-2 2h-2a2 2 0 0 1-2-2v-2Zm2 0h2v2h-2v-2ZM11 17a2 2 0 0 0-2 2v2a2 2 0 0 0 2 2h2a2 2 0 0 0 2-2v-2a2 2 0 0 0-2-2h-2Zm2 2h-2v2h2v-2ZM17 3a2 2 0 0 1 2-2h2a2 2 0 0 1 2 2v2a2 2 0 0 1-2 2h-2a2 2 0 0 1-2-2V3Zm2 0h2v2h-2V3ZM19 9a2 2 0 0 0-2 2v2a2 2 0 0 0 2 2h2a2 2 0 0 0 2-2v-2a2 2 0 0 0-2-2h-2Zm2 2h-2v2h2v-2ZM17 19a2 2 0 0 1 2-2h2a2 2 0 0 1 2 2v2a2 2 0 0 1-2 2h-2a2 2 0 0 1-2-2v-2Zm2 0h2v2h-2v-2Z" fill="#0F0F0F"/>
    </symbol>  

    <symbol id="icon-camper-door" viewBox="0 0 24 24"  fill="none">
      <path stroke="#000" stroke-linejoin="round" stroke-width="2" d="M4 10.5V4h6v6.5H4Zm10 0V4h6v6.5h-6Zm-10 10V14h6v6.5H4Zm10 0V14h6v6.5h-6Z"/>
    </symbol >    
    <symbol id="icon-camper-window" viewBox="0 0 24 24" fill="none">
      <path d="M9 12h12M9 4v16m-2.8 0h11.6c1.12 0 1.68 0 2.108-.218a2 2 0 0 0 .874-.874C21 18.48 21 17.92 21 16.8V7.2c0-1.12 0-1.68-.218-2.108a2 2 0 0 0-.874-.874C19.48 4 18.92 4 17.8 4H6.2c-1.12 0-1.68 0-2.108.218a2 2 0 0 0-.874.874C3 5.52 3 6.08 3 7.2v9.6c0 1.12 0 1.68.218 2.108a2 2 0 0 0 .874.874C4.52 20 5.08 20 6.2 20Z" stroke="#000" stroke-width="2" stroke-linecap="round" stroke-linejoin="round"/>
     </symbol>      
  </def>
  </svg>