
<svg aria-hidden="true" style="position:absolute;width:0;height:0;overflow:hidden" xmlns="http://www.w3.org/2000/svg">
<symbol id="icon-logo" width="135.677" height="14.744" fill="none">
  <defs>
  <path d="M135.39 7.18h-3.61c-.02-.22-.1-.41-.23-.57-.14-.16-.32-.29-.54-.37-.21-.09-.45-.14-.71-.14-.33 0-.62.06-.86.19-.25.12-.36.3-.36.52 0 .16.06.31.21.45.14.14.43.24.84.32l2.22.4c1.12.2 1.95.54 2.49 1.03.55.48.83 1.12.83 1.92 0 .78-.23 1.45-.69 2.03-.46.56-1.08 1.01-1.87 1.32-.79.31-1.69.46-2.69.46-1.67 0-2.97-.34-3.92-1.02-.93-.69-1.46-1.58-1.57-2.7h3.9c.05.34.22.61.51.8.29.18.66.28 1.1.28.36 0 .66-.06.89-.19.24-.12.36-.3.36-.52 0-.21-.1-.38-.31-.5-.2-.12-.51-.22-.94-.3l-1.93-.34c-1.11-.19-1.94-.56-2.5-1.11-.55-.54-.83-1.24-.82-2.1-.01-.76.19-1.4.6-1.92.4-.53.98-.94 1.74-1.21.75-.28 1.65-.42 2.69-.42 1.57 0 2.82.33 3.73.98.91.65 1.39 1.56 1.44 2.71ZM116.41 11.96l.03-4.66h.51l2.64-3.67H124l-4.44 5.71h-1.1l-2.05 2.62Zm-3.52 2.58V0h3.92v14.54h-3.92Zm6.73 0-2.5-4.32 2.56-2.78 4.43 7.1h-4.49ZM105.61 14.74c-1.18 0-2.19-.24-3.04-.7a4.903 4.903 0 0 1-1.93-1.98c-.45-.85-.68-1.83-.68-2.95 0-1.11.23-2.09.68-2.94.45-.84 1.09-1.5 1.93-1.97.85-.47 1.86-.71 3.04-.71 1.07 0 2 .19 2.78.58.79.39 1.4.93 1.83 1.64.43.7.65 1.52.65 2.47h-3.64c-.05-.58-.21-1.01-.49-1.31-.28-.3-.63-.45-1.07-.45-.34 0-.64.09-.89.29-.26.2-.46.49-.6.89-.14.39-.21.89-.21 1.49 0 .59.07 1.09.21 1.49.14.39.34.69.6.89.25.19.55.29.89.29.29 0 .55-.07.77-.2.22-.14.4-.34.54-.6.14-.26.23-.59.25-.96h3.64c-.01.96-.23 1.79-.66 2.51-.43.71-1.03 1.26-1.81 1.65-.78.39-1.71.58-2.79.58ZM94.04 9.77V3.63h3.92v10.91h-3.72v-2.07h-.11c-.24.69-.65 1.24-1.24 1.63-.6.39-1.3.58-2.11.58-.77 0-1.43-.17-2.01-.52-.56-.35-1.01-.84-1.32-1.45-.32-.62-.48-1.32-.48-2.12V3.63h3.92v6.14c.01.54.14.96.41 1.27.28.31.66.46 1.15.46.33 0 .61-.07.85-.21.24-.14.42-.34.55-.59.13-.26.2-.57.19-.93ZM77.9 14.54V3.63h3.8v2.08h.12c.2-.77.51-1.33.94-1.69.44-.35.95-.53 1.53-.53.17 0 .34.01.5.04.17.03.34.06.49.11v3.34c-.19-.06-.43-.11-.71-.15-.29-.03-.53-.05-.73-.05-.39 0-.73.09-1.04.27-.3.17-.54.41-.72.72-.17.31-.26.67-.26 1.09v5.68H77.9ZM64.45 3.18V0h12.64v3.18h-4.38v11.36h-3.89V3.18h-4.37Z" fill="#475467" fill-rule="evenodd"/>

  <path d="M62.5 0v14.54h-3.92V0h3.92ZM51.24 14.74c-1.16 0-2.17-.22-3.01-.67a4.687 4.687 0 0 1-1.94-1.93c-.45-.84-.67-1.85-.67-3.03 0-1.12.22-2.11.68-2.95.45-.84 1.09-1.5 1.92-1.97.83-.47 1.81-.7 2.94-.7.82 0 1.57.13 2.23.38.67.26 1.24.63 1.72 1.12.47.48.83 1.07 1.09 1.76.25.69.38 1.47.38 2.34V10h-9.74V7.84h6.13c0-.32-.08-.59-.24-.83a1.5 1.5 0 0 0-.61-.56c-.26-.14-.55-.2-.88-.2-.32 0-.61.06-.87.2-.27.13-.48.32-.64.55-.16.24-.24.52-.25.84v2.33c0 .35.07.66.22.93.15.28.36.49.63.65.28.16.61.23 1 .23.27 0 .51-.03.74-.11.22-.08.42-.18.58-.33.16-.14.28-.32.35-.52h3.58c-.12.76-.41 1.41-.87 1.97s-1.07.99-1.83 1.29c-.75.31-1.63.46-2.64.46ZM44.83 3.63l-3.66 10.91h-4.55L32.96 3.63h4.12l1.76 7.22h.11l1.76-7.22h4.12ZM25.05 14.71c-.69 0-1.31-.11-1.85-.34-.53-.23-.94-.58-1.25-1.05-.3-.47-.45-1.07-.45-1.79 0-.6.1-1.11.31-1.53.2-.42.48-.77.85-1.04.36-.27.79-.48 1.27-.62.49-.14 1.01-.23 1.58-.28.61-.04 1.1-.1 1.47-.17.37-.07.64-.17.81-.29.16-.13.24-.29.24-.5v-.03c0-.29-.1-.5-.32-.65-.22-.16-.5-.23-.84-.23-.37 0-.68.08-.92.25-.23.16-.37.41-.42.74h-3.6c.04-.66.25-1.27.63-1.83s.93-1.01 1.65-1.35c.73-.34 1.63-.51 2.72-.51.78 0 1.48.09 2.1.28.62.18 1.15.43 1.58.76.44.32.77.7 1 1.13.23.43.34.9.34 1.41v7.47h-3.66v-1.53h-.09c-.21.4-.48.73-.79.98a2.9 2.9 0 0 1-1.06.55c-.39.11-.83.17-1.3.17Zm1.28-2.47c.3 0 .58-.06.84-.19.26-.12.48-.3.64-.53.17-.23.25-.51.25-.84v-.91c-.1.04-.21.08-.33.12-.11.04-.24.07-.37.11-.13.03-.27.06-.41.09-.14.03-.29.05-.45.08-.3.04-.55.12-.75.23-.19.1-.33.23-.42.39-.09.15-.14.32-.14.51 0 .3.11.54.32.7.22.16.49.24.82.24ZM13.45 14.54V3.63h3.8v2.08h.12c.2-.77.51-1.33.94-1.69.44-.35.95-.53 1.53-.53.17 0 .34.01.5.04.17.03.34.06.49.11v3.34c-.19-.06-.43-.11-.71-.15-.29-.03-.53-.05-.74-.05-.38 0-.72.09-1.03.27-.31.17-.54.41-.72.72-.17.31-.26.67-.26 1.09v5.68h-3.92ZM0 3.18V0h12.64v3.18H8.26v11.36H4.37V3.18H0Z" fill="#101828"/>
<defs/>
</symbol>
</svg>

