<svg xmlns="http://www.w3.org/2000/svg" aria-hidden="true" style="position:absolute;width:0;height:0;overflow:hidden"><defs><symbol id="icon-map" viewBox="0 0 32 32"><path d="M31.633.224c.112.08.208.208.256.336.064.144.112.288.112.432v28.001c0 .224-.096.448-.24.64a1.01 1.01 0 0 1-.576.336l-10 2a.78.78 0 0 1-.384 0l-9.808-1.952-9.808 1.952a.984.984 0 0 1-.432 0 1.365 1.365 0 0 1-.4-.208.859.859 0 0 1-.256-.336 1.056 1.056 0 0 1-.096-.432V2.992c0-.224.08-.448.224-.64a1.01 1.01 0 0 1 .576-.336l10-2a.78.78 0 0 1 .384 0l9.808 1.952L30.801.016a.984.984 0 0 1 .432 0c.144.048.272.112.4.208zM20.001 3.808l-8-1.6v25.969l8 1.6V3.808zm2 25.969 8-1.6V2.208l-8 1.6v25.969zM10 28.177V2.208l-8 1.6v25.969l8-1.6z"/></symbol><symbol id="icon-radio" viewBox="0 0 32 32"><path d="M14 4.992c0-.272.096-.512.288-.704S14.72 4 14.992 4h14c.272 0 .512.096.704.288s.304.432.304.704v2c0 .272-.112.512-.304.704S29.264 8 28.992 8h-14c-.272 0-.512-.112-.704-.304S14 7.264 14 6.992v-2zM0 24c0-1.6.624-3.12 1.744-4.256a6.044 6.044 0 0 1 8.496 0A6.06 6.06 0 0 1 12 24a6.05 6.05 0 0 1-1.76 4.24A6.05 6.05 0 0 1 6 30c-1.6 0-3.12-.64-4.256-1.76A6.035 6.035 0 0 1 0 24zm14-3.008c0-.272.096-.512.288-.704s.432-.288.704-.288h14c.272 0 .512.096.704.288s.304.432.304.704v2c0 .272-.112.512-.304.704s-.432.304-.704.304h-14c-.272 0-.512-.112-.704-.304S14 23.264 14 22.992v-2zm0-10c0-.272.096-.512.288-.704s.432-.288.704-.288h10c.272 0 .512.096.704.288s.304.432.304.704c0 .272-.112.512-.304.704s-.432.304-.704.304h-10c-.272 0-.512-.112-.704-.304S14 11.264 14 10.992zm0 16c0-.272.096-.512.288-.704s.432-.288.704-.288h10c.272 0 .512.096.704.288s.304.432.304.704c0 .272-.112.512-.304.704s-.432.304-.704.304h-10c-.272 0-.512-.112-.704-.304S14 27.264 14 26.992zM6 2c-.8 0-1.584.144-2.304.448a6.211 6.211 0 0 0-1.952 1.296A6.211 6.211 0 0 0 .448 5.696 5.913 5.913 0 0 0 0 8c0 .784.144 1.568.448 2.288a6.211 6.211 0 0 0 1.296 1.952c.56.544 1.216.992 1.952 1.296C4.416 13.84 5.2 14 6 14a6.05 6.05 0 0 0 4.24-1.76A6.05 6.05 0 0 0 12 8c0-1.6-.64-3.12-1.76-4.256A6.035 6.035 0 0 0 6 2zm0 8.992A3.007 3.007 0 0 1 2.992 8c0-.8.32-1.568.88-2.128S5.2 4.992 6 4.992A3.007 3.007 0 0 1 8.992 8 3.007 3.007 0 0 1 6 10.992z"/></symbol><symbol id="icon-gas" viewBox="0 0 32 32"><path d="M6 4.992c0-.272.096-.512.288-.704S6.72 4 6.992 4h10c.272 0 .512.096.704.288s.304.432.304.704v10c0 .272-.112.512-.304.704s-.432.304-.704.304h-10c-.272 0-.512-.112-.704-.304S6 15.264 6 14.992v-10z"/><path d="M2 4c0-1.072.416-2.08 1.168-2.832S4.928 0 6 0h12c1.056 0 2.064.416 2.816 1.168S22 2.928 22 4v16c1.056 0 2.064.416 2.816 1.168S26 22.928 26 24v.992c0 .272.096.512.288.704s.432.304.704.304c.272 0 .512-.112.704-.304s.304-.432.304-.704V16h-1.008c-.272 0-.512-.112-.704-.304S26 15.264 26 14.992V8.736c0-.256.096-.512.288-.704s.432-.288.704-.288h2.992c-.016-.96-.112-1.792-.4-2.448a1.9 1.9 0 0 0-.784-.912C28.432 4.16 27.872 4 26.992 4c-.272 0-.512-.112-.704-.304S26 3.264 26 2.992c0-.272.096-.512.288-.704S26.72 2 26.992 2c1.136-.016 2.064.208 2.832.656a4.027 4.027 0 0 1 1.584 1.824C32 5.792 32 7.408 32 8.64v6.352a1.1 1.1 0 0 1-.08.384c-.048.112-.128.224-.224.32s-.192.176-.32.224a1.1 1.1 0 0 1-.384.08H30v8.992c0 .8-.32 1.552-.88 2.128-.576.56-1.328.88-2.128.88s-1.552-.32-2.128-.88A3.028 3.028 0 0 1 24 24.992V24c0-.544-.224-1.04-.592-1.424A2.026 2.026 0 0 0 22 22v8h.992c.272 0 .512.096.704.288s.304.432.304.704c0 .272-.112.512-.304.704s-.432.304-.704.304h-22c-.272 0-.512-.112-.704-.304S0 31.264 0 30.992c0-.272.096-.512.288-.704S.72 30 .992 30H2V4zm18 0c0-.544-.224-1.04-.592-1.424A2.026 2.026 0 0 0 18 2H6c-.544 0-1.04.208-1.424.576C4.208 2.96 4 3.456 4 4v26h16V4z"/></symbol><symbol id="icon-people" viewBox="0 0 32 32"><path d="M30 28s2 0 2-2-2-8-10-8-10 6-10 8 2 2 2 2h16zm-15.968-2L14 25.984c0-.528.32-2.064 1.52-3.44C16.624 21.248 18.56 20 22 20c3.424 0 5.36 1.248 6.464 2.544 1.2 1.376 1.52 2.912 1.536 3.44h-.016l-.032.016h-15.92zM22 14c1.056 0 2.064-.432 2.816-1.184S26 11.056 26 10c0-1.072-.432-2.08-1.184-2.832S23.056 6 22 6c-1.072 0-2.08.416-2.832 1.168S18 8.928 18 10c0 1.056.416 2.064 1.168 2.816S20.928 14 22 14zm6-4c0 .784-.16 1.568-.464 2.288a6.211 6.211 0 0 1-1.296 1.952 6.211 6.211 0 0 1-1.952 1.296 5.906 5.906 0 0 1-4.592 0 6.398 6.398 0 0 1-1.952-1.296 6.211 6.211 0 0 1-1.296-1.952A5.891 5.891 0 0 1 16 10c0-1.6.624-3.12 1.744-4.256a6.044 6.044 0 0 1 8.496 0A6.06 6.06 0 0 1 28 10zm-14.128 8.544a13.15 13.15 0 0 0-2.464-.48c-.48-.048-.944-.08-1.408-.064-8 0-10 6-10 8 0 1.328.656 2 2 2h8.416A4.583 4.583 0 0 1 10 26c0-2.032.752-4.096 2.176-5.808a9.767 9.767 0 0 1 1.696-1.648zM9.824 20A11.067 11.067 0 0 0 8 26H2c0-.528.32-2.064 1.52-3.456C4.608 21.28 6.496 20.032 9.824 20zm-6.832-9.008c0-1.584.64-3.12 1.76-4.24s2.656-1.76 4.24-1.76 3.12.64 4.24 1.76 1.76 2.656 1.76 4.24-.64 3.12-1.76 4.24-2.656 1.76-4.24 1.76-3.12-.64-4.24-1.76-1.76-2.656-1.76-4.24zm6-4c-1.056 0-2.08.416-2.832 1.168s-1.168 1.776-1.168 2.832c0 1.056.416 2.08 1.168 2.832s1.776 1.168 2.832 1.168c1.056 0 2.08-.416 2.832-1.168s1.168-1.776 1.168-2.832c0-1.056-.416-2.08-1.168-2.832s-1.776-1.168-2.832-1.168z"/></symbol><symbol id="icon-droplet" viewBox="0 0 32 32"><path d="M14.42 1.59C15.38.59 16 0 16 0c.21.72.46 1.41.74 2.07 1.62 3.89 4.14 6.7 6.39 9.2C25.75 14.19 28 16.69 28 20c0 3.18-1.27 6.23-3.52 8.48S19.18 32 16 32A12.004 12.004 0 0 1 4 20c0-6.67 7.16-14.97 10.42-18.41zm.82 2.05c-1.28 1.39-2.5 2.83-3.66 4.33-1.45 1.91-2.87 4.02-3.92 6.15C6.6 16.26 6 18.27 6 20c0 2.65 1.05 5.19 2.92 7.07C10.8 28.94 13.34 30 16 30c2.65 0 5.19-1.06 7.07-2.93C24.94 25.19 26 22.65 26 20c0-2.41-1.6-4.32-4.37-7.4l-.06-.07C19.5 10.22 17 7.44 15.24 3.64z"/><path d="M9.1 15.55c1.64-3.28 3.44-5.51 4.19-6.26l1.41 1.41c-.58.58-2.25 2.63-3.81 5.74l-1.79-.89z"/></symbol><symbol id="icon-tv" viewBox="0 0 32 32"><path d="M0 8s0-4 4-4h24s4 0 4 4v12s0 4-4 4h-8c0 1.33.16 2.33.5 3H22c.26 0 .51.1.7.29s.3.44.3.71c0 .26-.11.51-.3.7s-.44.3-.7.3H10c-.27 0-.52-.11-.71-.3S9 28.26 9 28a.99.99 0 0 1 1-1h1.5c.33-.67.5-1.67.5-3H4s-4 0-4-4V8zm2.79-1.72c-.22.16-.39.37-.51.61-.17.35-.26.73-.28 1.13V20c0 .65.15 1 .29 1.2.14.21.34.38.6.51.34.16.7.26 1.08.28l.05.01H28c.65 0 1-.16 1.2-.29.22-.16.39-.37.51-.61.16-.34.26-.7.28-1.07l.01-.05V8c0-.66-.16-1.01-.29-1.21a1.67 1.67 0 0 0-.61-.51c-.35-.17-.73-.26-1.12-.28H4c-.65 0-1.01.15-1.21.28z"/></symbol><symbol id="icon-1x2" viewBox="0 0 32 32"><path d="M12 2H2v28h10V2zm18 0H20v10h10V2zm0 18v10H20V20h10zM0 2C0 1.46.21.96.58.58.96.21 1.46 0 2 0h10c.53 0 1.03.21 1.41.58.37.38.59.88.59 1.42v28c0 .53-.22 1.03-.59 1.41-.38.37-.88.59-1.41.59H2c-.54 0-1.04-.22-1.42-.59C.21 31.03 0 30.53 0 30V2zm18 0c0-.54.21-1.04.58-1.42C18.96.21 19.46 0 20 0h10c.53 0 1.03.21 1.41.58.37.38.59.88.59 1.42v10c0 .53-.22 1.03-.59 1.41-.38.37-.88.59-1.41.59H20c-.54 0-1.04-.22-1.42-.59-.37-.38-.58-.88-.58-1.41V2zm2 16c-.54 0-1.04.21-1.42.58-.37.38-.58.88-.58 1.42v10c0 .53.21 1.03.58 1.41.38.37.88.59 1.42.59h10c.53 0 1.03-.22 1.41-.59.37-.38.59-.88.59-1.41V20c0-.54-.22-1.04-.59-1.42-.38-.37-.88-.58-1.41-.58H20z"/></symbol><symbol id="icon-wind" viewBox="0 0 32 32"><path d="M25 4c-1.33 0-2.6.52-3.54 1.46S20 7.67 20 9c0 .26-.11.51-.3.7s-.44.3-.7.3c-.27 0-.52-.11-.71-.3S18 9.26 18 9c0-1.39.41-2.74 1.17-3.89.77-1.16 1.87-2.05 3.15-2.58s2.68-.67 4.04-.4c1.36.27 2.61.94 3.58 1.92.98.97 1.65 2.22 1.92 3.58s.13 2.76-.4 4.04a6.97 6.97 0 0 1-2.58 3.15C27.73 15.58 26.38 16 25 16H1c-.27 0-.52-.11-.71-.3S0 15.26 0 15a.99.99 0 0 1 1-1h24c1.32 0 2.59-.53 3.53-1.47S30 10.32 30 9a5.003 5.003 0 0 0-5-5zM11 6c-.54 0-1.04.21-1.42.58C9.21 6.96 9 7.46 9 8c0 .26-.11.51-.3.7S8.26 9 8 9c-.27 0-.52-.11-.71-.3S7 8.26 7 8c0-.8.23-1.57.67-2.23S8.73 4.6 9.46 4.3c.74-.3 1.54-.38 2.32-.23a4.048 4.048 0 0 1 3.14 3.14c.15.78.07 1.58-.23 2.32-.3.73-.81 1.35-1.47 1.79S11.79 12 11 12H1c-.27 0-.52-.11-.71-.3S0 11.26 0 11a.99.99 0 0 1 1-1h10c.53 0 1.03-.22 1.41-.59.37-.38.59-.88.59-1.41 0-.54-.22-1.04-.59-1.42C12.03 6.21 11.53 6 11 6zM0 19a.99.99 0 0 1 1-1h20.08c1.19 0 2.35.35 3.33 1.01a5.93 5.93 0 0 1 2.21 2.69c.46 1.1.58 2.3.34 3.47a5.992 5.992 0 0 1-4.71 4.71c-1.16.23-2.37.11-3.47-.34-1.09-.46-2.03-1.22-2.69-2.21s-1.01-2.15-1.01-3.33a.99.99 0 0 1 1-1c.26 0 .52.1.71.29.18.19.29.44.29.71 0 .79.23 1.56.67 2.22s1.07 1.17 1.8 1.47c.73.3 1.53.38 2.31.23.78-.16 1.49-.54 2.05-1.1s.94-1.27 1.09-2.04c.16-.78.08-1.58-.23-2.32-.3-.73-.81-1.35-1.47-1.79S21.87 20 21.08 20H1c-.27 0-.52-.11-.71-.3S0 19.26 0 19z"/></symbol><symbol id="icon-2x2" viewBox="0 0 32 32"><path d="M2 5c0-.8.31-1.56.87-2.13C3.44 2.31 4.2 2 5 2h6c.79 0 1.55.31 2.12.87.56.57.88 1.33.88 2.13v6c0 .79-.32 1.55-.88 2.12-.57.56-1.33.88-2.12.88H5c-.8 0-1.56-.32-2.13-.88C2.31 12.55 2 11.79 2 11V5zm3-1a.99.99 0 0 0-1 1v6c0 .26.1.51.29.7s.44.3.71.3h6c.26 0 .51-.11.7-.3s.3-.44.3-.7V5c0-.27-.11-.52-.3-.71S11.26 4 11 4H5zm13 1c0-.8.31-1.56.87-2.13C19.44 2.31 20.2 2 21 2h6c.79 0 1.55.31 2.12.87.56.57.88 1.33.88 2.13v6c0 .79-.32 1.55-.88 2.12-.57.56-1.33.88-2.12.88h-6c-.8 0-1.56-.32-2.13-.88-.56-.57-.87-1.33-.87-2.12V5zm3-1a.99.99 0 0 0-1 1v6c0 .26.1.51.29.7s.44.3.71.3h6c.26 0 .51-.11.7-.3s.3-.44.3-.7V5c0-.27-.11-.52-.3-.71S27.26 4 27 4h-6zM2 21c0-.8.31-1.56.87-2.13C3.44 18.31 4.2 18 5 18h6c.79 0 1.55.31 2.12.87.56.57.88 1.33.88 2.13v6c0 .79-.32 1.55-.88 2.12-.57.56-1.33.88-2.12.88H5c-.8 0-1.56-.32-2.13-.88C2.31 28.55 2 27.79 2 27v-6zm3-1a.99.99 0 0 0-1 1v6c0 .26.1.51.29.7s.44.3.71.3h6c.26 0 .51-.11.7-.3s.3-.44.3-.7v-6c0-.27-.11-.52-.3-.71S11.26 20 11 20H5zm13 1c0-.8.31-1.56.87-2.13.57-.56 1.33-.87 2.13-.87h6c.79 0 1.55.31 2.12.87.56.57.88 1.33.88 2.13v6c0 .79-.32 1.55-.88 2.12-.57.56-1.33.88-2.12.88h-6c-.8 0-1.56-.32-2.13-.88-.56-.57-.87-1.33-.87-2.12v-6zm3-1a.99.99 0 0 0-1 1v6c0 .26.1.51.29.7s.44.3.71.3h6c.26 0 .51-.11.7-.3s.3-.44.3-.7v-6c0-.27-.11-.52-.3-.71S27.26 20 27 20h-6z"/></symbol><symbol id="icon-diagram" viewBox="0 0 32 32"><path d="M12 7c0-.8.31-1.56.87-2.13C13.44 4.31 14.2 4 15 4h2c.79 0 1.55.31 2.12.87.56.57.88 1.33.88 2.13v2c0 .79-.32 1.55-.88 2.12-.57.56-1.33.88-2.12.88v2h11c.26 0 .51.1.7.29s.3.44.3.71v2c0 .26-.11.51-.3.7s-.44.3-.7.3c-.27 0-.52-.11-.71-.3S27 17.26 27 17v-1H17v1c0 .26-.11.51-.3.7s-.44.3-.7.3c-.27 0-.52-.11-.71-.3S15 17.26 15 17v-1H5v1c0 .26-.11.51-.3.7s-.44.3-.7.3c-.27 0-.52-.11-.71-.3S3 17.26 3 17v-2a.99.99 0 0 1 1-1h11v-2c-.8 0-1.56-.32-2.13-.88C12.31 10.55 12 9.79 12 9V7zm5 3c.26 0 .51-.11.7-.3s.3-.44.3-.7V7c0-.27-.11-.52-.3-.71S17.26 6 17 6h-2a.99.99 0 0 0-1 1v2c0 .26.1.51.29.7s.44.3.71.3h2zM0 23c0-.8.31-1.56.87-2.13C1.44 20.31 2.2 20 3 20h2c.79 0 1.55.31 2.12.87.56.57.88 1.33.88 2.13v2c0 .79-.32 1.55-.88 2.12-.57.56-1.33.88-2.12.88H3c-.8 0-1.56-.32-2.13-.88C.31 26.55 0 25.79 0 25v-2zm3-1a.99.99 0 0 0-1 1v2c0 .26.1.51.29.7s.44.3.71.3h2c.26 0 .51-.11.7-.3s.3-.44.3-.7v-2c0-.27-.11-.52-.3-.71S5.26 22 5 22H3zm9 1c0-.8.31-1.56.87-2.13.57-.56 1.33-.87 2.13-.87h2c.79 0 1.55.31 2.12.87.56.57.88 1.33.88 2.13v2c0 .79-.32 1.55-.88 2.12-.57.56-1.33.88-2.12.88h-2c-.8 0-1.56-.32-2.13-.88-.56-.57-.87-1.33-.87-2.12v-2zm3-1a.99.99 0 0 0-1 1v2c0 .26.1.51.29.7s.44.3.71.3h2c.26 0 .51-.11.7-.3s.3-.44.3-.7v-2c0-.27-.11-.52-.3-.71S17.26 22 17 22h-2zm9 1c0-.8.31-1.56.87-2.13.57-.56 1.33-.87 2.13-.87h2c.79 0 1.55.31 2.12.87.56.57.88 1.33.88 2.13v2c0 .79-.32 1.55-.88 2.12-.57.56-1.33.88-2.12.88h-2c-.8 0-1.56-.32-2.13-.88-.56-.57-.87-1.33-.87-2.12v-2zm3-1a.99.99 0 0 0-1 1v2c0 .26.1.51.29.7s.44.3.71.3h2c.26 0 .51-.11.7-.3s.3-.44.3-.7v-2c0-.27-.11-.52-.3-.71S29.26 22 29 22h-2z"/></symbol><symbol id="icon-3x3" viewBox="0 0 32 32"><path d="M8 4v4H4V4h4zm2 24v-4c0-.54-.22-1.04-.59-1.42C9.03 22.21 8.53 22 8 22H4c-.54 0-1.04.21-1.42.58-.37.38-.58.88-.58 1.42v4c0 .53.21 1.03.58 1.41.38.37.88.59 1.42.59h4c.53 0 1.03-.22 1.41-.59.37-.38.59-.88.59-1.41zm0-10v-4c0-.54-.22-1.04-.59-1.42C9.03 12.21 8.53 12 8 12H4c-.54 0-1.04.21-1.42.58-.37.38-.58.88-.58 1.42v4c0 .53.21 1.03.58 1.41.38.37.88.59 1.42.59h4c.53 0 1.03-.22 1.41-.59.37-.38.59-.88.59-1.41zm0-10V4c0-.54-.22-1.04-.59-1.42C9.03 2.21 8.53 2 8 2H4c-.54 0-1.04.21-1.42.58C2.21 2.96 2 3.46 2 4v4c0 .53.21 1.03.58 1.41.38.37.88.59 1.42.59h4c.53 0 1.03-.22 1.41-.59.37-.38.59-.88.59-1.41zm10 20v-4c0-.54-.22-1.04-.59-1.42-.38-.37-.88-.58-1.41-.58h-4c-.54 0-1.04.21-1.42.58-.37.38-.58.88-.58 1.42v4c0 .53.21 1.03.58 1.41.38.37.88.59 1.42.59h4c.53 0 1.03-.22 1.41-.59.37-.38.59-.88.59-1.41zm0-10v-4c0-.54-.22-1.04-.59-1.42-.38-.37-.88-.58-1.41-.58h-4c-.54 0-1.04.21-1.42.58-.37.38-.58.88-.58 1.42v4c0 .53.21 1.03.58 1.41.38.37.88.59 1.42.59h4c.53 0 1.03-.22 1.41-.59.37-.38.59-.88.59-1.41zm0-10V4c0-.54-.22-1.04-.59-1.42C19.03 2.21 18.53 2 18 2h-4c-.54 0-1.04.21-1.42.58-.37.38-.58.88-.58 1.42v4c0 .53.21 1.03.58 1.41.38.37.88.59 1.42.59h4c.53 0 1.03-.22 1.41-.59.37-.38.59-.88.59-1.41zm-2-4v4h-4V4h4zm10 0v4h-4V4h4zM8 14v4H4v-4h4zm10 0v4h-4v-4h4zm10 0h-4v4h4v-4zM8 24v4H4v-4h4zm10 0v4h-4v-4h4zm10 0v4h-4v-4h4zM24 2c-.54 0-1.04.21-1.42.58-.37.38-.58.88-.58 1.42v4c0 .53.21 1.03.58 1.41.38.37.88.59 1.42.59h4c.53 0 1.03-.22 1.41-.59.37-.38.59-.88.59-1.41V4c0-.54-.22-1.04-.59-1.42C29.03 2.21 28.53 2 28 2h-4zm-2 12c0-.54.21-1.04.58-1.42.38-.37.88-.58 1.42-.58h4c.53 0 1.03.21 1.41.58.37.38.59.88.59 1.42v4c0 .53-.22 1.03-.59 1.41-.38.37-.88.59-1.41.59h-4c-.54 0-1.04-.22-1.42-.59-.37-.38-.58-.88-.58-1.41v-4zm2 8c-.54 0-1.04.21-1.42.58-.37.38-.58.88-.58 1.42v4c0 .53.21 1.03.58 1.41.38.37.88.59 1.42.59h4c.53 0 1.03-.22 1.41-.59.37-.38.59-.88.59-1.41v-4c0-.54-.22-1.04-.59-1.42-.38-.37-.88-.58-1.41-.58h-4z"/></symbol><symbol id="icon-cup" viewBox="0 0 32 32"><path d="M.99 12c-.14 0-.29.03-.43.09-.13.07-.25.16-.34.28-.1.12-.16.25-.2.4-.03.14-.03.29 0 .44l3.3 14.87c.25 1.11.87 2.1 1.75 2.81.89.72 2 1.1 3.13 1.11h11.59c1.13-.01 2.24-.39 3.13-1.11.88-.71 1.5-1.7 1.75-2.81l.26-1.18c1.53.29 3.11-.03 4.41-.89a6.017 6.017 0 0 0 1.81-8.15 6.041 6.041 0 0 0-3.62-2.67l.44-1.98c.03-.15.03-.3 0-.44-.04-.15-.1-.28-.2-.4-.09-.12-.21-.21-.34-.28-.14-.06-.29-.09-.43-.09H.99zM26 25c-.22 0-.43-.02-.64-.05l1.74-7.8c.92.27 1.72.86 2.24 1.67.53.81.74 1.78.61 2.73A4.023 4.023 0 0 1 26 25zM5.27 27.65 2.24 14h23.51l-3.03 13.65c-.15.66-.52 1.26-1.06 1.68-.53.43-1.19.66-1.87.67H8.2c-.68-.01-1.34-.24-1.87-.67-.54-.42-.91-1.02-1.06-1.68zM8.8 1.6h-.01l-.03.04c-.14.2-.28.41-.41.62-.1.17-.2.35-.28.54-.05.12-.07.18-.07.2v.01c.02.18.08.35.18.5.15.26.35.54.62.89l.02.02c.23.32.52.69.74 1.09S10 6.42 10 7c0 .37-.13.73-.24.98-.12.27-.25.53-.41.78-.15.26-.32.52-.5.76l-.04.05-.01.02c-.16.22-.4.36-.66.39-.26.04-.53-.03-.74-.18a.954.954 0 0 1-.39-.66c-.04-.27.03-.53.19-.74v-.01l.03-.04c.14-.2.28-.41.41-.62.1-.17.2-.35.28-.53.05-.12.07-.19.07-.21-.02-.18-.08-.35-.18-.5-.18-.32-.39-.61-.61-.89l-.03-.03a9.74 9.74 0 0 1-.73-1.08C6.16 4.03 6.01 3.52 6 3c0-.38.13-.74.23-.99.12-.28.27-.55.41-.78.16-.26.32-.51.5-.76L7.19.4c.16-.22.4-.36.66-.39.26-.04.53.03.74.19.22.15.36.39.39.65.04.27-.03.53-.18.75zm6 0h-.01l-.03.04c-.14.2-.28.41-.41.62-.1.17-.2.35-.28.54-.05.12-.07.18-.07.2v.01c.02.18.08.35.18.5.15.26.36.54.62.89l.02.02c.23.32.52.69.74 1.09S16 6.42 16 7c0 .37-.13.73-.24.98-.12.27-.25.53-.41.78-.15.26-.32.52-.5.76l-.04.05-.01.02c-.16.22-.4.36-.66.39-.26.04-.53-.03-.74-.18a.954.954 0 0 1-.39-.66c-.04-.27.03-.53.19-.74v-.01l.03-.04c.14-.2.28-.41.41-.62.1-.17.2-.35.28-.53.05-.12.07-.19.07-.21-.02-.18-.08-.35-.18-.5-.18-.32-.39-.61-.61-.89l-.02-.03a8.61 8.61 0 0 1-.74-1.08c-.28-.46-.43-.97-.44-1.49 0-.38.13-.74.23-.99.12-.28.27-.55.41-.78.16-.26.32-.51.5-.76l.05-.07c.16-.22.4-.36.66-.39.26-.04.53.03.74.19.22.15.36.39.39.65.04.27-.03.53-.18.75zm6 0h-.01l-.03.04c-.14.2-.28.41-.41.62-.1.17-.2.35-.28.54-.05.12-.07.18-.07.2v.01c.02.18.08.35.18.5.15.26.36.54.62.89l.02.02c.23.32.52.69.74 1.09S22 6.42 22 7c0 .37-.13.73-.24.98-.12.27-.25.53-.41.78-.15.26-.32.52-.5.76l-.04.05-.01.02c-.16.22-.4.36-.66.39-.26.04-.53-.03-.74-.18a.954.954 0 0 1-.39-.66c-.04-.27.03-.53.19-.74v-.01l.03-.04c.14-.2.28-.41.41-.62.1-.17.2-.35.28-.53.05-.12.07-.19.07-.21-.02-.18-.08-.35-.18-.5-.18-.32-.39-.61-.61-.89l-.02-.03a8.61 8.61 0 0 1-.74-1.08c-.28-.46-.43-.97-.44-1.49 0-.38.12-.74.23-.99.12-.28.27-.55.41-.78.16-.26.32-.51.5-.76l.05-.07c.16-.22.4-.36.66-.39.26-.04.53.03.74.19.22.15.36.39.39.65.04.27-.03.53-.18.75z"/></symbol><symbol id="icon-heart" viewBox="0 0 32 32"><path d="m16 12.467-1.8-3.573c-.44-.893-1.213-2.16-2.293-3.2C10.827 4.681 9.547 4.001 8 4.001c-3.36 0-6 2.64-6 5.84 0 2.413 1.107 4.12 3.733 6.733.667.667 1.44 1.387 2.293 2.187 2.213 2.08 4.973 4.667 7.973 8.133 3-3.467 5.747-6.053 7.96-8.133.853-.8 1.627-1.52 2.293-2.187 2.627-2.613 3.747-4.32 3.747-6.733 0-3.2-2.653-5.84-6-5.84-1.56 0-2.84.68-3.92 1.693-1.08 1.04-1.853 2.307-2.293 3.2l-1.787 3.573zm.773 16.586c-.093.107-.213.2-.347.267s-.28.093-.427.093c-.16 0-.307-.027-.44-.093s-.253-.16-.347-.267c-3.2-3.813-6.107-6.533-8.493-8.76-4.12-3.88-6.72-6.32-6.72-10.453 0-4.333 3.573-7.84 8-7.84 3.187 0 5.427 2.093 6.8 4.013.52.72.92 1.427 1.2 1.987.333-.693.733-1.36 1.187-1.987C18.559 4.093 20.799 2 23.999 2c4.413 0 8 3.507 8 7.84 0 4.133-2.6 6.573-6.733 10.453-2.387 2.24-5.293 4.96-8.493 8.76z"/></symbol><symbol id="icon-star" viewBox="0 0 34 32" fill="currentColor"><path d="M15.699.615 11.23 9.079a1.162 1.162 0 0 1-.828.615L.968 11.325c-.946.165-1.3 1.3-.638 1.986l6.667 6.856c.26.26.378.638.307.993l-1.348 9.481c-.142.946.827 1.631 1.679 1.229l8.582-4.232a1.199 1.199 0 0 1 1.064 0l8.582 4.232c.851.402 1.82-.284 1.679-1.229l-1.348-9.481a1.11 1.11 0 0 1 .307-.993l6.667-6.856c.662-.686.307-1.821-.638-1.986l-9.434-1.631a1.164 1.164 0 0 1-.828-.615L17.8.615c-.449-.828-1.655-.828-2.104 0z" /></symbol></defs></svg>